<svg xmlns="http://www.w3.org/2000/svg" width="1000" height="670" font-family="'Segoe UI', Helvetica, Arial, sans-serif"><rect width="100%" height="100%" fill="white" /><text x="500" y="24" font-size="16" font-weight="700" text-anchor="middle" fill="#0f172a">PlanningPoker.Api under 10 rooms x 10 players simulated load</text><text x="60" y="38" font-size="13" font-weight="600" fill="#1b7a3d">CPU -- avg 0.7%, peak 13.0%</text><line x1="60" y1="310.0" x2="980" y2="310.0" stroke="#e2e8f0" stroke-width="1" /><text x="52" y="314.0" font-size="11" text-anchor="end" fill="#475569">0%</text><line x1="60" y1="245.0" x2="980" y2="245.0" stroke="#e2e8f0" stroke-width="1" /><text x="52" y="249.0" font-size="11" text-anchor="end" fill="#475569">25%</text><line x1="60" y1="180.0" x2="980" y2="180.0" stroke="#e2e8f0" stroke-width="1" /><text x="52" y="184.0" font-size="11" text-anchor="end" fill="#475569">50%</text><line x1="60" y1="115.0" x2="980" y2="115.0" stroke="#e2e8f0" stroke-width="1" /><text x="52" y="119.0" font-size="11" text-anchor="end" fill="#475569">75%</text><line x1="60" y1="50.0" x2="980" y2="50.0" stroke="#e2e8f0" stroke-width="1" /><text x="52" y="54.0" font-size="11" text-anchor="end" fill="#475569">100%</text><polyline points="63.2,278.9 66.3,276.4 69.4,280.2 72.6,276.3 75.7,281.5 78.8,298.3 82.0,306.1 85.1,299.6 88.2,291.8 91.3,310.0 94.5,308.7 97.6,308.7 100.7,308.7 103.9,310.0 107.0,284.1 110.1,303.5 113.2,308.7 116.4,308.7 119.5,308.7 122.6,310.0 125.8,304.8 128.9,307.4 132.0,308.7 135.1,308.7 138.3,308.7 141.4,310.0 144.5,310.0 147.7,310.0 150.8,308.7 153.9,310.0 157.1,310.0 160.2,310.0 163.3,308.7 166.5,310.0 169.6,308.7 172.7,310.0 175.8,310.0 179.0,308.7 182.1,308.7 185.2,310.0 188.4,307.4 191.5,310.0 194.6,308.7 197.7,308.7 200.9,308.7 204.0,310.0 207.1,308.7 210.3,310.0 213.4,310.0 216.5,307.4 219.6,310.0 222.8,308.7 225.9,310.0 229.0,308.7 232.3,307.5 235.4,310.0 238.5,308.7 241.6,308.7 244.8,307.4 247.9,308.7 251.0,307.4 254.1,307.4 257.3,310.0 260.4,308.7 263.5,310.0 266.7,310.0 269.8,310.0 272.9,310.0 276.0,310.0 279.2,310.0 282.3,310.0 285.4,307.4 288.6,310.0 291.7,308.7 294.8,308.7 297.9,310.0 301.1,308.7 304.2,308.7 307.3,308.7 310.4,310.0 313.6,308.7 316.7,308.7 319.8,310.0 323.0,308.7 326.1,308.7 329.2,310.0 332.3,307.4 335.5,310.0 338.6,310.0 341.7,308.7 344.9,308.7 348.0,308.7 351.1,308.7 354.2,308.7 357.4,307.4 360.5,308.7 363.6,310.0 366.8,308.7 369.9,310.0 373.0,310.0 376.1,310.0 379.3,308.7 382.4,310.0 385.5,308.7 388.7,310.0 391.8,310.0 394.9,310.0 398.0,308.7 401.2,308.7 404.3,308.7 407.4,308.7 410.5,310.0 413.7,308.7 416.8,308.7 419.9,310.0 423.1,307.4 426.2,310.0 429.3,307.4 432.4,307.4 435.6,307.4 438.7,307.4 441.8,308.7 445.0,307.4 448.1,310.0 451.2,310.0 454.3,308.7 457.5,308.7 460.6,308.7 463.7,310.0 466.9,310.0 470.0,310.0 473.1,310.0 476.2,310.0 479.4,310.0 482.5,310.0 485.6,310.0 488.7,307.4 491.9,310.0 495.0,310.0 498.1,310.0 501.3,308.7 504.4,308.7 507.5,310.0 510.6,308.7 513.8,308.7 516.9,308.7 520.0,308.7 523.2,308.7 526.3,310.0 529.4,307.4 532.6,304.8 535.7,300.9 538.8,310.0 542.0,308.7 545.1,308.7 548.2,308.7 551.3,308.7 554.5,310.0 557.6,308.7 560.7,308.7 563.9,310.0 567.0,308.7 570.1,310.0 573.2,308.7 576.4,310.0 579.5,310.0 582.6,310.0 585.8,310.0 588.9,310.0 592.0,308.7 595.2,310.0 598.3,310.0 601.4,308.7 604.5,310.0 607.7,310.0 610.8,307.4 613.9,310.0 617.1,308.7 620.2,310.0 623.3,308.7 626.5,306.1 629.6,310.0 632.7,308.7 635.8,308.7 639.0,308.7 642.1,310.0 645.2,307.4 648.4,310.0 651.5,307.4 654.6,310.0 657.8,308.7 660.9,308.7 664.0,308.7 667.1,310.0 670.3,308.7 673.4,310.0 676.5,310.0 679.7,307.4 682.8,310.0 685.9,310.0 689.0,308.7 692.2,310.0 695.3,310.0 698.4,310.0 701.5,308.7 704.7,310.0 707.8,308.7 710.9,310.0 714.1,310.0 717.2,310.0 720.3,307.4 723.4,310.0 726.6,310.0 729.7,308.7 732.8,308.7 736.0,310.0 739.1,310.0 742.2,310.0 745.3,307.4 748.5,310.0 751.6,307.4 754.7,310.0 757.9,310.0 761.0,310.0 764.1,304.8 767.3,310.0 770.4,308.7 773.5,308.7 776.6,307.4 779.8,310.0 782.9,308.7 786.0,308.7 789.2,310.0 792.3,310.0 795.4,308.7 798.5,310.0 801.7,310.0 804.8,310.0 807.9,308.7 811.1,310.0 814.2,307.4 817.3,310.0 820.4,310.0 823.6,308.7 826.7,308.7 829.8,310.0 833.0,308.7 836.1,310.0 839.2,307.4 842.3,310.0 845.5,308.7 848.6,310.0 851.7,308.7 854.9,307.4 858.0,310.0 861.1,308.7 864.2,308.7 867.4,310.0 870.5,308.7 873.6,308.7 876.8,310.0 879.9,310.0 883.0,307.4 886.1,310.0 889.3,310.0 892.4,307.4 895.5,310.0 898.6,310.0 901.8,310.0 904.9,310.0 908.0,310.0 911.2,310.0 914.3,308.7 917.4,310.0 920.5,310.0 923.7,306.1 926.8,293.1 929.9,302.2 933.1,310.0 936.2,308.7 939.3,303.5 942.5,298.3 945.6,310.0 948.7,308.7 951.8,310.0 955.0,310.0 958.1,310.0 961.2,310.0 964.4,310.0 967.5,310.0 970.6,310.0 973.7,310.0 976.9,310.0 980.0,310.0 " fill="none" stroke="#1b7a3d" stroke-width="2" /><text x="60" y="358" font-size="13" font-weight="600" fill="#1d4ed8">Memory -- avg 103 MB, peak 112 MB</text><line x1="60" y1="630.0" x2="980" y2="630.0" stroke="#e2e8f0" stroke-width="1" /><text x="52" y="634.0" font-size="11" text-anchor="end" fill="#475569">0MB</text><line x1="60" y1="565.0" x2="980" y2="565.0" stroke="#e2e8f0" stroke-width="1" /><text x="52" y="569.0" font-size="11" text-anchor="end" fill="#475569">32MB</text><line x1="60" y1="500.0" x2="980" y2="500.0" stroke="#e2e8f0" stroke-width="1" /><text x="52" y="504.0" font-size="11" text-anchor="end" fill="#475569">64MB</text><line x1="60" y1="435.0" x2="980" y2="435.0" stroke="#e2e8f0" stroke-width="1" /><text x="52" y="439.0" font-size="11" text-anchor="end" fill="#475569">96MB</text><line x1="60" y1="370.0" x2="980" y2="370.0" stroke="#e2e8f0" stroke-width="1" /><text x="52" y="374.0" font-size="11" text-anchor="end" fill="#475569">129MB</text><polyline points="63.2,458.1 66.3,448.8 69.4,446.2 72.6,443.8 75.7,433.0 78.8,432.6 82.0,432.2 85.1,431.9 88.2,430.8 91.3,430.8 94.5,430.8 97.6,430.8 100.7,430.8 103.9,430.8 107.0,425.1 110.1,424.9 113.2,424.8 116.4,424.7 119.5,424.7 122.6,424.7 125.8,424.5 128.9,424.4 132.0,424.4 135.1,424.3 138.3,424.3 141.4,424.3 144.5,424.3 147.7,424.3 150.8,424.3 153.9,424.3 157.1,424.6 160.2,424.4 163.3,424.4 166.5,424.4 169.6,424.4 172.7,424.4 175.8,424.4 179.0,424.4 182.1,424.4 185.2,424.4 188.4,424.4 191.5,424.3 194.6,424.3 197.7,424.3 200.9,424.3 204.0,424.2 207.1,424.2 210.3,424.2 213.4,424.2 216.5,424.2 219.6,424.2 222.8,424.2 225.9,424.1 229.0,424.1 232.3,424.1 235.4,424.1 238.5,424.0 241.6,424.0 244.8,423.9 247.9,423.9 251.0,423.8 254.1,423.8 257.3,423.8 260.4,423.6 263.5,423.6 266.7,423.6 269.8,423.6 272.9,423.6 276.0,423.6 279.2,423.6 282.3,423.6 285.4,423.6 288.6,423.6 291.7,423.6 294.8,423.6 297.9,423.6 301.1,423.5 304.2,423.5 307.3,423.5 310.4,423.5 313.6,423.5 316.7,423.5 319.8,423.5 323.0,423.4 326.1,423.4 329.2,423.4 332.3,423.4 335.5,423.4 338.6,423.4 341.7,423.3 344.9,423.3 348.0,423.3 351.1,423.2 354.2,423.2 357.4,423.1 360.5,423.1 363.6,423.1 366.8,423.1 369.9,423.0 373.0,423.0 376.1,423.0 379.3,423.0 382.4,423.0 385.5,423.0 388.7,423.0 391.8,423.0 394.9,423.0 398.0,423.0 401.2,423.0 404.3,423.0 407.4,423.0 410.5,422.9 413.7,422.9 416.8,422.9 419.9,422.9 423.1,422.8 426.2,422.8 429.3,422.8 432.4,422.7 435.6,422.7 438.7,422.7 441.8,422.6 445.0,422.6 448.1,422.6 451.2,422.5 454.3,422.5 457.5,422.5 460.6,422.4 463.7,422.4 466.9,422.5 470.0,422.5 473.1,422.5 476.2,422.5 479.4,422.5 482.5,422.5 485.6,422.5 488.7,422.5 491.9,422.5 495.0,422.5 498.1,422.5 501.3,422.5 504.4,422.5 507.5,422.5 510.6,422.5 513.8,422.4 516.9,422.4 520.0,422.4 523.2,422.4 526.3,422.4 529.4,422.3 532.6,422.1 535.7,421.8 538.8,421.8 542.0,421.8 545.1,421.8 548.2,421.7 551.3,421.7 554.5,421.5 557.6,421.5 560.7,421.5 563.9,421.5 567.0,421.4 570.1,421.4 573.2,421.4 576.4,421.4 579.5,421.5 582.6,421.5 585.8,421.5 588.9,421.4 592.0,421.4 595.2,421.4 598.3,421.4 601.4,421.4 604.5,421.4 607.7,421.4 610.8,421.4 613.9,421.4 617.1,421.4 620.2,421.4 623.3,421.3 626.5,421.3 629.6,421.3 632.7,421.3 635.8,421.3 639.0,421.3 642.1,421.3 645.2,421.2 648.4,421.1 651.5,421.1 654.6,421.1 657.8,421.0 660.9,421.0 664.0,421.0 667.1,420.9 670.3,420.9 673.4,420.9 676.5,420.9 679.7,420.9 682.8,420.9 685.9,420.9 689.0,420.8 692.2,420.8 695.3,420.8 698.4,420.8 701.5,420.8 704.7,420.8 707.8,420.8 710.9,420.8 714.1,420.8 717.2,420.8 720.3,420.8 723.4,420.8 726.6,420.8 729.7,420.7 732.8,420.7 736.0,420.7 739.1,420.7 742.2,420.7 745.3,420.7 748.5,420.7 751.6,420.7 754.7,420.7 757.9,420.6 761.0,420.6 764.1,420.5 767.3,420.5 770.4,420.5 773.5,420.4 776.6,420.4 779.8,420.4 782.9,420.4 786.0,420.3 789.2,420.3 792.3,420.3 795.4,420.3 798.5,420.3 801.7,420.3 804.8,420.3 807.9,420.3 811.1,420.3 814.2,420.3 817.3,420.3 820.4,420.3 823.6,420.3 826.7,420.3 829.8,420.3 833.0,420.3 836.1,420.3 839.2,420.2 842.3,420.2 845.5,420.2 848.6,420.2 851.7,420.2 854.9,420.2 858.0,420.1 861.1,420.1 864.2,420.1 867.4,420.1 870.5,420.1 873.6,420.2 876.8,420.2 879.9,420.2 883.0,420.2 886.1,420.1 889.3,420.1 892.4,420.1 895.5,420.1 898.6,420.1 901.8,420.1 904.9,420.1 908.0,420.1 911.2,420.1 914.3,420.1 917.4,420.1 920.5,420.1 923.7,419.3 926.8,412.2 929.9,411.9 933.1,411.9 936.2,411.8 939.3,411.5 942.5,403.9 945.6,403.9 948.7,403.9 951.8,403.9 955.0,403.9 958.1,403.9 961.2,403.9 964.4,403.9 967.5,404.0 970.6,404.0 973.7,404.0 976.9,404.0 980.0,404.0 " fill="none" stroke="#1d4ed8" stroke-width="2" /><text x="500" y="660" font-size="11" text-anchor="middle" fill="#64748b">Elapsed time: 0 - 147s</text></svg>